<svg xmlns="http://www.w3.org/2000/svg" width="1200" height="630" viewBox="0 0 1200 630" role="img" aria-labelledby="title desc"><title id="title">SocialDrop</title><desc id="desc">Free TikTok, Instagram and Facebook video downloader by Hoberg Digital Agency.</desc><rect width="1200" height="630" fill="#000"/><circle cx="1030" cy="-20" r="260" fill="#c8001a"/><circle cx="1120" cy="570" r="180" fill="#d4a843"/><path d="M80 110h210c75 0 120 45 120 112 0 48-27 84-73 101l82 137H291l-63-118h-42v118H80V110Zm106 78v78h91c28 0 45-15 45-39s-17-39-45-39h-91Z" fill="#fff"/><path d="M80 490h230" stroke="#c8001a" stroke-width="16" stroke-linecap="round"/><text x="80" y="390" fill="#fff" font-family="Georgia,serif" font-size="84" font-weight="700">SocialDrop</text><text x="80" y="555" fill="#d8d8d8" font-family="Arial,sans-serif" font-size="28">Fast downloads for TikTok, Instagram &amp; Facebook</text><text x="940" y="300" fill="#fff" font-family="Arial,sans-serif" font-size="26" text-anchor="middle">POWERED BY</text><text x="940" y="340" fill="#fff" font-family="Arial,sans-serif" font-size="32" font-weight="700" text-anchor="middle">HOBERG DIGITAL</text></svg>
